PathFileType	4	(X/Y/Z)	/tmp/tmpa0c7p0na/results/JA1Gait35.trc
DataRate	CameraRate	NumFrames	NumMarkers	Units	OrigDataRate	OrigDataStartFrame	OrigNumFrames
250	250	8	53	m	250	0	322
Frame#	Time	C7			LARM			LASI			LELB			LFOREARM			LHEEL			LLEPI			LLMAL			LMFL			LMFS			LP1MT			LP5MT			LPAT			LSH			LTHAD			LTHAP			LTHLD			LTHLP			LTIAD			LTIAP			LTILAT			LTOE			LWR			MAN			P1			P2			P3			RARM			RASI			RELB			RFOREARM			RHEEL			RLEPI			RLMAL			RMFL			RMFS			RP1MT			RP5MT			RPAT			RSH			RTHAD			RTHAP			RTHLD			RTHLP			RTIAD			RTIAP			RTILAT			RTOE			RWR			SACR			T7			x52			x53		
		X1	Y1	Z1	X2	Y2	Z2	X3	Y3	Z3	X4	Y4	Z4	X5	Y5	Z5	X6	Y6	Z6	X7	Y7	Z7	X8	Y8	Z8	X9	Y9	Z9	X10	Y10	Z10	X11	Y11	Z11	X12	Y12	Z12	X13	Y13	Z13	X14	Y14	Z14	X15	Y15	Z15	X16	Y16	Z16	X17	Y17	Z17	X18	Y18	Z18	X19	Y19	Z19	X20	Y20	Z20	X21	Y21	Z21	X22	Y22	Z22	X23	Y23	Z23	X24	Y24	Z24	X25	Y25	Z25	X26	Y26	Z26	X27	Y27	Z27	X28	Y28	Z28	X29	Y29	Z29	X30	Y30	Z30	X31	Y31	Z31	X32	Y32	Z32	X33	Y33	Z33	X34	Y34	Z34	X35	Y35	Z35	X36	Y36	Z36	X37	Y37	Z37	X38	Y38	Z38	X39	Y39	Z39	X40	Y40	Z40	X41	Y41	Z41	X42	Y42	Z42	X43	Y43	Z43	X44	Y44	Z44	X45	Y45	Z45	X46	Y46	Z46	X47	Y47	Z47	X48	Y48	Z48	X49	Y49	Z49	X50	Y50	Z50	X51	Y51	Z51	X52	Y52	Z52	X53	Y53	Z53

1	0	-5.89776	1.49048	0.161615	-6.0018	1.42662	-0.109936	-5.81091	1.0055	0.0662715	-6.15035	1.41249	-0.140056	-6.22397	1.28567	-0.144015	-5.78856	0.399884	0.146627	-5.50884	0.790106	0.0533086	-5.7102	0.407069	0.0948403	-5.66464	0.346393	0.0751785	-5.61937	0.352617	0.137967	-5.591	0.264638	0.150618	-5.64465	0.288685	0.0304295	-5.43446	0.838512	0.118575	-5.84974	1.47886	-0.0164513	-5.56214	0.931487	0.0901009	-5.66952	0.969655	0.084008	-5.59979	0.829652	0.0150858	-5.71033	0.853284	-0.00600719	-5.60873	0.522787	0.14004	-5.53546	0.641204	0.133624	-5.61676	0.604806	0.06727	-5.55905	0.277597	0.114215	-6.32268	1.19304	-0.137813	-5.76662	1.38516	0.133426	-6.00685	1.04546	0.127623	-6.01058	1.05032	0.233593	-6.04844	1.00057	0.178295	-5.7078	1.3415	0.394526	-5.81796	0.982689	0.278027	-5.6216	1.23765	0.436374	-5.52532	1.32239	0.366186	-6.62435	0.332505	0.209946	-6.23458	0.589146	0.305273	-6.58251	0.278841	0.261883	-6.60699	0.196385	0.258903	-6.55313	0.173544	0.210802	-6.57977	0.110978	0.15635	-6.63301	0.111849	0.271081	-6.15171	0.525409	0.273555	-5.8248	1.48419	0.303354	-6.03871	0.619479	0.280827	-5.96735	0.690118	0.294393	-6.12812	0.692543	0.336234	-6.06376	0.78376	0.355506	-6.45854	0.33133	0.215562	-6.35144	0.416451	0.235271	-6.42132	0.455675	0.292507	-6.54068	0.0963251	0.209892	-5.44291	1.39131	0.298252	-5.99053	1.07297	0.18117	-5.97615	1.30098	0.19085	-5.39683	1.42985	0.260261	-6.37285	1.14596	-0.13466
2	0.004	-5.86066	1.48889	0.16206	-5.97154	1.43628	-0.105163	-5.7736	1.00523	0.0673043	-6.11575	1.42483	-0.132932	-6.19087	1.29885	-0.141801	-5.71976	0.381254	0.144163	-5.46873	0.792362	0.0538108	-5.65027	0.394067	0.0905218	-5.5913	0.33576	0.0749273	-5.54798	0.345798	0.137338	-5.51329	0.261274	0.15212	-5.5527	0.278116	0.0344854	-5.39664	0.843025	0.119788	-5.81328	1.4794	-0.0158717	-5.52437	0.933002	0.0906492	-5.63144	0.970173	0.0857832	-5.5558	0.831879	0.0137221	-5.65147	0.856563	-0.016652	-5.54905	0.517536	0.138616	-5.48457	0.641056	0.132839	-5.56465	0.598477	0.065256	-5.51106	0.268824	0.0986722	-6.30076	1.21008	-0.139317	-5.72999	1.38438	0.131647	-5.96923	1.04468	0.130014	-5.97217	1.05107	0.235844	-6.012	1.00217	0.181406	-5.66625	1.3472	0.392122	-5.77994	0.981846	0.279277	-5.57824	1.24601	0.435359	-5.48871	1.33645	0.364538	-6.59649	0.354712	0.214193	-6.20367	0.598036	0.304043	-6.55933	0.298496	0.266107	-6.58886	0.217591	0.264188	-6.53474	0.192021	0.218153	-6.57009	0.123719	0.164216	-6.62627	0.132032	0.27553	-6.13183	0.529037	0.261548	-5.78928	1.48478	0.301258	-6.0092	0.625802	0.275313	-5.93581	0.692648	0.291493	-6.09582	0.699868	0.333607	-6.02891	0.788228	0.355722	-6.44351	0.34862	0.213674	-6.32593	0.428569	0.235368	-6.39211	0.468656	0.294032	-6.55967	0.10187	0.208969	-5.41177	1.41074	0.295969	-5.95148	1.07235	0.182998	-5.93815	1.29963	0.192523	-5.36874	1.45228	0.257623	-6.35661	1.16496	-0.138054
3	0.008	-5.82338	1.48807	0.161988	-5.93561	1.44232	-0.100092	-5.73673	1.00487	0.0686441	-6.08006	1.43544	-0.125443	-6.16232	1.31301	-0.139664	-5.65138	0.362487	0.142089	-5.42982	0.792578	0.0539569	-5.58226	0.379958	0.0889409	-5.51651	0.326841	0.0771927	-5.4783	0.33919	0.13616	-5.43575	0.25925	0.153086	-5.47604	0.269854	0.0351528	-5.3598	0.845146	0.120476	-5.7761	1.47953	-0.0157635	-5.48718	0.93327	0.0918522	-5.59404	0.969692	0.0874467	-5.51857	0.831961	0.0163447	-5.62954	0.853323	-0.00578381	-5.49109	0.511771	0.137503	-5.43586	0.639522	0.131948	-5.51143	0.590799	0.0631418	-5.40106	0.276854	0.119672	-6.25879	1.21852	-0.137039	-5.69406	1.38228	0.132239	-5.93199	1.04379	0.131155	-5.93421	1.0515	0.236927	-5.97552	1.00281	0.183362	-5.62701	1.35157	0.390483	-5.74238	0.981445	0.280726	-5.53622	1.25314	0.434571	-5.45292	1.34835	0.363109	-6.5748	0.375971	0.213974	-6.16941	0.603069	0.303485	-6.53784	0.320358	0.268204	-6.57018	0.241149	0.26842	-6.49942	0.215863	0.232213	-6.56197	0.138223	0.171229	-6.61613	0.154754	0.281539	-6.09395	0.535773	0.259647	-5.75395	1.48563	0.299947	-5.97666	0.630845	0.27038	-5.90239	0.694854	0.289456	-6.0618	0.70581	0.332331	-5.99314	0.792177	0.355756	-6.41231	0.363027	0.21851	-6.30032	0.440604	0.234211	-6.36132	0.47991	0.295924	-6.5291	0.126876	0.228386	-5.38202	1.42777	0.294155	-5.91317	1.07168	0.1837	-5.90036	1.29882	0.194068	-5.34238	1.47219	0.255593	-6.30782	1.1705	-0.135705
4	0.012	-5.78584	1.48811	0.161556	-5.8988	1.44623	-0.0955041	-5.69998	1.0054	0.0692751	-6.04355	1.44411	-0.118079	-6.12216	1.31982	-0.13687	-5.58357	0.343497	0.140423	-5.39378	0.790791	0.0534298	-5.5143	0.365731	0.0875239	-5.44734	0.315681	0.0750427	-5.40601	0.334889	0.135327	-5.36045	0.2591	0.154227	-5.39999	0.261813	0.0362702	-5.32578	0.844925	0.11957	-5.73843	1.47946	-0.0158699	-5.45013	0.931605	0.0942122	-5.5567	0.967582	0.0891462	-5.47446	0.831835	0.0151188	-5.57966	0.854019	-0.0108482	-5.43449	0.503897	0.135753	-5.39039	0.635222	0.130131	-5.45873	0.581389	0.0608469	-5.32951	0.276051	0.117998	-6.23158	1.22975	-0.138582	-5.65637	1.38134	0.131086	-5.89516	1.04308	0.131378	-5.89677	1.05193	0.23696	-5.93802	1.00205	0.184331	-5.58926	1.35492	0.389581	-5.70502	0.98241	0.282274	-5.49568	1.25878	0.434206	-5.41778	1.35813	0.362456	-6.55263	0.399154	0.212399	-6.1311	0.604832	0.302143	-6.51794	0.344031	0.268259	-6.55173	0.266577	0.271117	-6.485	0.236959	0.234063	-6.54973	0.160322	0.177096	-6.59962	0.184164	0.289145	-6.05813	0.538583	0.255418	-5.71749	1.48659	0.29904	-5.9418	0.634214	0.265994	-5.86632	0.696518	0.288242	-6.02513	0.709125	0.333105	-5.9563	0.795603	0.356133	-6.38313	0.378585	0.22088	-6.2741	0.451819	0.232907	-6.33014	0.490399	0.297203	-6.53512	0.14389	0.224014	-5.35282	1.44184	0.293141	-5.87547	1.07128	0.183499	-5.86275	1.29934	0.195411	-5.31649	1.48865	0.254377	-6.28719	1.18396	-0.139452
5	0.016	-5.74796	1.48897	0.160893	-5.86191	1.44868	-0.0914994	-5.66325	1.0055	0.0694223	-6.00644	1.45054	-0.111169	-6.08659	1.32692	-0.134256	-5.5161	0.324122	0.139682	-5.35811	0.786886	0.0529994	-5.44959	0.350882	0.0860585	-5.38035	0.303208	0.0726925	-5.34383	0.327265	0.132666	-5.28668	0.259747	0.155277	-5.32586	0.254432	0.0375638	-5.29073	0.842397	0.118467	-5.70023	1.47944	-0.0162829	-5.41363	0.928587	0.0973417	-5.52094	0.964396	0.0922089	-5.43946	0.82924	0.0163161	-5.56072	0.847745	0.00629516	-5.37973	0.495234	0.13429	-5.34797	0.62967	0.127094	-5.40674	0.570454	0.0583562	-5.26338	0.275819	0.114563	-6.18768	1.23836	-0.135861	-5.61815	1.38094	0.129828	-5.85827	1.0425	0.13106	-5.85966	1.05263	0.236373	-5.90067	1.0016	0.184569	-5.55189	1.35745	0.38944	-5.66817	0.982645	0.283406	-5.45515	1.26271	0.433988	-5.38382	1.3659	0.362092	-6.52778	0.424495	0.210211	-6.09259	0.604662	0.3014	-6.49608	0.368993	0.267458	-6.53244	0.293669	0.272074	-6.48388	0.257097	0.226626	-6.53329	0.185787	0.182047	-6.57775	0.216423	0.296613	-6.02484	0.538377	0.249699	-5.6812	1.4881	0.298825	-5.90384	0.634998	0.264153	-5.82925	0.698349	0.286839	-5.98637	0.709427	0.33515	-5.91848	0.797375	0.35714	-6.36129	0.397128	0.218919	-6.2471	0.463297	0.231109	-6.29893	0.501002	0.297536	-6.50005	0.176043	0.239773	-5.32412	1.45306	0.292647	-5.83844	1.0713	0.182811	-5.82531	1.30102	0.196203	-5.29073	1.5018	0.25381	-6.23905	1.19335	-0.136676
6	0.02	-5.7093	1.49045	0.160136	-5.82508	1.45001	-0.0885072	-5.6272	1.00589	0.0691119	-5.96892	1.45453	-0.105308	-6.05794	1.3336	-0.132736	-5.45047	0.305988	0.137899	-5.31441	0.781893	0.0448971	-5.38545	0.336377	0.0844789	-5.31713	0.292123	0.071253	-5.27951	0.320522	0.131142	-5.21495	0.260762	0.156411	-5.25286	0.247989	0.039221	-5.25629	0.837759	0.116965	-5.6614	1.47951	-0.0169453	-5.37797	0.922898	0.0993577	-5.48504	0.959167	0.0950799	-5.40487	0.826104	0.0158631	-5.52802	0.845328	0.00758534	-5.33054	0.485263	0.130072	-5.30345	0.622569	0.12569	-5.35662	0.558352	0.0556802	-5.19344	0.278086	0.115564	-6.15433	1.2441	-0.135907	-5.57957	1.38118	0.128538	-5.82178	1.04254	0.130441	-5.82247	1.05332	0.235828	-5.86375	1.00211	0.18453	-5.51453	1.35917	0.390253	-5.63077	0.984567	0.283755	-5.41742	1.26532	0.434371	-5.35086	1.37139	0.362257	-6.50244	0.450667	0.206938	-6.05288	0.603214	0.300825	-6.47168	0.395135	0.266127	-6.51077	0.321616	0.272614	-6.46514	0.28153	0.226381	-6.51481	0.212481	0.185877	-6.55435	0.249057	0.301752	-5.98474	0.53714	0.249949	-5.6438	1.48987	0.298889	-5.86361	0.634455	0.263986	-5.79039	0.69972	0.285646	-5.94611	0.707475	0.337164	-5.87949	0.796883	0.358575	-6.33441	0.414376	0.218591	-6.21733	0.474491	0.229685	-6.26744	0.512967	0.296834	-6.48417	0.202905	0.240697	-5.29555	1.46125	0.292773	-5.80169	1.07174	0.182141	-5.78762	1.30329	0.196319	-5.26462	1.5115	0.253915	-6.20332	1.19861	-0.137519
7	0.024	-5.67024	1.49225	0.159308	-5.78764	1.45022	-0.086316	-5.59139	1.00674	0.0688455	-5.93111	1.45608	-0.100762	-6.02104	1.33573	-0.130351	-5.3858	0.288882	0.13566	-5.28424	0.773399	0.0469395	-5.32167	0.322436	0.0828924	-5.24595	0.284664	0.0699824	-5.21504	0.316595	0.130262	-5.14703	0.262215	0.157957	-5.18433	0.242913	0.04068	-5.22263	0.831296	0.115548	-5.62337	1.47986	-0.0175596	-5.34226	0.915836	0.0999453	-5.44947	0.953865	0.0956985	-5.37674	0.821678	0.0175907	-5.48601	0.848343	-0.00570768	-5.27871	0.475563	0.128568	-5.26019	0.614515	0.124306	-5.30839	0.545974	0.0530811	-5.12685	0.280829	0.116314	-6.12138	1.24589	-0.136476	-5.54183	1.3817	0.128193	-5.78542	1.04321	0.129881	-5.78523	1.05384	0.235459	-5.82699	1.00288	0.184492	-5.47712	1.36026	0.391392	-5.59352	0.98654	0.283668	-5.38126	1.26654	0.434988	-5.31847	1.37469	0.362686	-6.47517	0.477746	0.20363	-6.01341	0.601745	0.301067	-6.44556	0.423309	0.264332	-6.48599	0.351673	0.27302	-6.42765	0.311708	0.235263	-6.49559	0.240581	0.188216	-6.53153	0.281117	0.304151	-5.94703	0.534143	0.250016	-5.60564	1.49202	0.298893	-5.82175	0.632056	0.265635	-5.74872	0.697794	0.287049	-5.90547	0.704398	0.338514	-5.83944	0.794364	0.359835	-6.30571	0.433815	0.217929	-6.18592	0.485712	0.228767	-6.23413	0.527123	0.295797	-6.46654	0.229701	0.24161	-5.2668	1.46657	0.293297	-5.76543	1.07259	0.181584	-5.74996	1.30571	0.195636	-5.2379	1.51795	0.254492	-6.17237	1.20024	-0.139588
8	0.028	-5.6309	1.49424	0.158406	-5.75027	1.44957	-0.0850351	-5.55584	1.00794	0.0687226	-5.89326	1.45574	-0.0976674	-5.98334	1.33572	-0.128335	-5.32285	0.272968	0.132671	-5.25792	0.764552	0.0518384	-5.25844	0.309609	0.0805347	-5.18213	0.275803	0.0705576	-5.15408	0.312074	0.129684	-5.08352	0.263867	0.160251	-5.11599	0.238402	0.0428883	-5.18977	0.823402	0.114256	-5.58424	1.48023	-0.0187523	-5.30938	0.907956	0.0981767	-5.41318	0.948011	0.0966472	-5.34473	0.816428	0.0163368	-5.4517	0.847493	-0.0071567	-5.22786	0.46512	0.126957	-5.218	0.60527	0.122822	-5.25921	0.532753	0.0514851	-5.06457	0.283514	0.118869	-6.08665	1.24603	-0.137135	-5.50387	1.38246	0.128243	-5.74917	1.04412	0.129437	-5.74814	1.05429	0.235218	-5.79002	1.00342	0.184404	-5.44032	1.36092	0.392562	-5.55588	0.988906	0.283326	-5.34656	1.26634	0.435964	-5.28658	1.3759	0.363331	-6.44275	0.506772	0.201391	-5.97287	0.599813	0.301972	-6.41639	0.452374	0.262592	-6.45917	0.382968	0.272886	-6.40314	0.339751	0.235882	-6.47118	0.2688	0.191234	-6.50911	0.313283	0.304312	-5.90861	0.529987	0.252221	-5.56652	1.49435	0.298533	-5.77983	0.628779	0.267887	-5.70782	0.697602	0.286907	-5.86397	0.700755	0.339744	-5.79883	0.791215	0.360761	-6.27479	0.454234	0.217229	-6.15271	0.49608	0.229563	-6.1986	0.542258	0.294722	-6.44658	0.258526	0.244647	-5.23753	1.46899	0.29401	-5.72939	1.07358	0.181201	-5.71227	1.30807	0.194465	-5.2101	1.52104	0.255244	-6.13916	1.20045	-0.141607
